<svg width="1440" height="423" viewBox="0 0 1440 423" fill="none" xmlns="http://www.w3.org/2000/svg">
<g clip-path="url(#clip0_4_11)">
<path d="M1456 -203H-10V423H1456V-203Z" fill="white"/>
<path d="M-10 152.777L20.6231 150.377C51.4091 147.873 112.655 143.074 173.739 145.995C234.822 148.916 295.742 159.767 356.826 153.82C417.909 147.873 479.155 125.337 540.239 114.173C601.322 103.01 662.242 103.427 723.326 111.878C784.409 120.433 845.655 137.127 906.739 132.953C967.822 128.78 1028.74 103.74 1089.83 106.557C1150.91 109.27 1212.16 139.944 1273.24 142.343C1334.32 144.743 1395.24 119.077 1425.54 106.14L1456 93.3066V424.043H1425.54C1395.24 424.043 1334.32 424.043 1273.24 424.043C1212.16 424.043 1150.91 424.043 1089.83 424.043C1028.74 424.043 967.822 424.043 906.739 424.043C845.655 424.043 784.409 424.043 723.326 424.043C662.242 424.043 601.322 424.043 540.239 424.043C479.155 424.043 417.909 424.043 356.826 424.043C295.742 424.043 234.822 424.043 173.739 424.043C112.655 424.043 51.4091 424.043 20.6231 424.043H-10V152.777Z" fill="#C8E6FC"/>
<path d="M-10 175.73L20.6231 173.956C51.4091 172.287 112.655 168.74 173.739 165.818C234.822 162.897 295.742 160.393 356.826 162.48C417.909 164.566 479.155 171.244 540.239 177.504C601.322 183.764 662.242 189.606 723.326 198.37C784.409 207.03 845.655 218.507 906.739 225.497C967.822 232.383 1028.74 234.887 1089.83 237.078C1150.91 239.373 1212.16 241.46 1273.24 229.149C1334.32 216.733 1395.24 190.024 1425.54 176.565L1456 163.21V424.043H1425.54C1395.24 424.043 1334.32 424.043 1273.24 424.043C1212.16 424.043 1150.91 424.043 1089.83 424.043C1028.74 424.043 967.822 424.043 906.739 424.043C845.655 424.043 784.409 424.043 723.326 424.043C662.242 424.043 601.322 424.043 540.239 424.043C479.155 424.043 417.909 424.043 356.826 424.043C295.742 424.043 234.822 424.043 173.739 424.043C112.655 424.043 51.4091 424.043 20.6231 424.043H-10V175.73Z" fill="#ACC3F9"/>
<path d="M-10 295.713L20.6231 290.288C51.4091 284.967 112.655 274.116 173.739 260.031C234.822 245.946 295.742 228.627 356.826 218.298C417.909 208.073 479.155 204.943 540.239 217.776C601.322 230.714 662.242 259.51 723.326 265.144C784.409 270.673 845.655 252.937 906.739 237.287C967.822 221.637 1028.74 208.073 1089.83 212.247C1150.91 216.42 1212.16 238.33 1273.24 247.407C1334.32 256.38 1395.24 252.624 1425.54 250.641L1456 248.763V424.043H1425.54C1395.24 424.043 1334.32 424.043 1273.24 424.043C1212.16 424.043 1150.91 424.043 1089.83 424.043C1028.74 424.043 967.822 424.043 906.739 424.043C845.655 424.043 784.409 424.043 723.326 424.043C662.242 424.043 601.322 424.043 540.239 424.043C479.155 424.043 417.909 424.043 356.826 424.043C295.742 424.043 234.822 424.043 173.739 424.043C112.655 424.043 51.4091 424.043 20.6231 424.043H-10V295.713Z" fill="#B797E5"/>
<path d="M-10 305.103L20.6231 306.981C51.4091 308.964 112.655 312.72 173.739 304.895C234.822 297.07 295.742 277.664 356.826 275.681C417.909 273.803 479.155 289.453 540.239 296.444C601.322 303.33 662.242 301.66 723.326 301.765C784.409 301.973 845.655 304.06 906.739 298.322C967.822 292.583 1028.74 279.02 1089.83 276.725C1150.91 274.534 1212.16 283.506 1273.24 291.227C1334.32 298.843 1395.24 305.103 1425.54 308.233L1456 311.363V424.043H1425.54C1395.24 424.043 1334.32 424.043 1273.24 424.043C1212.16 424.043 1150.91 424.043 1089.83 424.043C1028.74 424.043 967.822 424.043 906.739 424.043C845.655 424.043 784.409 424.043 723.326 424.043C662.242 424.043 601.322 424.043 540.239 424.043C479.155 424.043 417.909 424.043 356.826 424.043C295.742 424.043 234.822 424.043 173.739 424.043C112.655 424.043 51.4091 424.043 20.6231 424.043H-10V305.103Z" fill="#D05FB2"/>
<path d="M-10 382.31L20.6231 385.127C51.4091 387.84 112.655 393.474 173.739 396.917C234.822 400.36 295.742 401.82 356.826 392.013C417.909 382.31 479.155 361.443 540.239 355.496C601.322 349.654 662.242 358.626 723.326 361.13C784.409 363.53 845.655 359.357 906.739 357.583C967.822 355.914 1028.74 356.54 1089.83 360.713C1150.91 364.886 1212.16 372.607 1273.24 377.406C1334.32 382.31 1395.24 384.397 1425.54 385.44L1456 386.483V424.043H1425.54C1395.24 424.043 1334.32 424.043 1273.24 424.043C1212.16 424.043 1150.91 424.043 1089.83 424.043C1028.74 424.043 967.822 424.043 906.739 424.043C845.655 424.043 784.409 424.043 723.326 424.043C662.242 424.043 601.322 424.043 540.239 424.043C479.155 424.043 417.909 424.043 356.826 424.043C295.742 424.043 234.822 424.043 173.739 424.043C112.655 424.043 51.4091 424.043 20.6231 424.043H-10V382.31Z" fill="#D70063"/>
</g>
<defs>
<clipPath id="clip0_4_11">
<rect width="1466" height="626" fill="white" transform="translate(-10 -203)"/>
</clipPath>
</defs>
</svg>
