<svg width="536" height="530" viewBox="0 0 536 530" fill="none" xmlns="http://www.w3.org/2000/svg">
<path d="M348.126 511.936L338.252 514.14L324.887 477.806L339.461 474.552L348.126 511.936Z" fill="#FFB6B6"/>
<path d="M350.819 521.968L320.453 528.749L320.366 528.372C319.653 525.295 320.214 522.067 321.926 519.396C323.638 516.726 326.361 514.832 329.495 514.132L329.496 514.132L334.085 508.763L345.391 510.582L348.042 509.99L350.819 521.968Z" fill="#2F2E41"/>
<path d="M507.418 334.832L512.846 343.222L482.456 367.769L474.443 355.384L507.418 334.832Z" fill="#FFB6B6"/>
<path d="M516.144 328.977L532.839 354.779L532.506 354.986C529.792 356.678 526.505 357.242 523.368 356.555C520.23 355.868 517.5 353.985 515.776 351.322L515.776 351.321L509.083 348.879L507.037 337.815L505.579 335.562L516.144 328.977Z" fill="#2F2E41"/>
<path d="M192.655 245.125L190.216 231.251L227.295 214.817L235.302 200.902C235.043 199.681 235.134 198.414 235.563 197.24C235.992 196.066 236.744 195.031 237.734 194.251C238.725 193.47 239.916 192.973 241.177 192.814C242.437 192.656 243.717 192.843 244.876 193.354C246.035 193.866 247.028 194.681 247.744 195.711C248.46 196.741 248.873 197.946 248.935 199.191C248.998 200.437 248.709 201.675 248.099 202.77C247.49 203.864 246.584 204.772 245.482 205.393L232.31 225.381L192.655 245.125Z" fill="#A0616A"/>
<path d="M143.916 510.674L154.011 510.673L158.814 472.451L143.913 472.452L143.916 510.674Z" fill="#A0616A"/>
<path d="M157.371 511.565V504.848L154.717 505.007L143.913 505.635L141.412 505.786L139.5 528.285L139.398 529.491H146.567L146.797 528.293L147.838 522.848L150.527 528.293L151.115 529.491H170.121C171.252 529.484 172.334 529.039 173.133 528.253C173.932 527.468 174.383 526.404 174.388 525.294C175.19 521.617 159.385 513.668 157.371 511.565Z" fill="#2F2E41"/>
<path d="M24.0728 358.987L21.7193 368.624L58.4682 382.12L61.9413 367.898L24.0728 358.987Z" fill="#A0616A"/>
<path d="M20.851 371.622L27.5067 373.189L27.9679 370.618L29.8646 360.16L30.2983 357.738L8.45294 350.668L7.28175 350.289L5.61028 357.131L6.74331 357.63L11.8949 359.893L5.87375 361.19L4.54969 361.472L0.118347 379.612C-0.138387 380.693 0.0497481 381.83 0.641936 382.776C1.23412 383.722 2.18253 384.4 3.28119 384.663C6.7374 386.287 18.2983 373.055 20.851 371.622Z" fill="#2F2E41"/>
<path d="M159.526 263.305L146.531 257.343L120.616 288.124L104.831 292.043C103.699 291.476 102.429 291.228 101.162 291.326C99.8956 291.423 98.681 291.862 97.6525 292.595C96.6241 293.327 95.8219 294.324 95.3346 295.476C94.8473 296.628 94.6938 297.889 94.8911 299.121C95.0885 300.353 95.6289 301.508 96.4528 302.457C97.2767 303.407 98.3519 304.114 99.5597 304.502C100.768 304.889 102.061 304.941 103.297 304.652C104.533 304.363 105.664 303.745 106.564 302.865L129.679 295.655L159.526 263.305Z" fill="#A0616A"/>
<path d="M343.761 149.355C341.007 149.355 338.314 148.554 336.024 147.052C333.733 145.55 331.948 143.415 330.894 140.917C329.84 138.419 329.564 135.671 330.101 133.019C330.639 130.367 331.965 127.931 333.913 126.02C335.861 124.108 338.342 122.806 341.044 122.279C343.746 121.751 346.546 122.022 349.091 123.056C351.636 124.091 353.811 125.843 355.341 128.091C356.872 130.339 357.689 132.982 357.689 135.686C357.684 139.31 356.216 142.785 353.605 145.347C350.994 147.91 347.454 149.351 343.761 149.355ZM343.761 123.585C341.323 123.585 338.939 124.294 336.912 125.624C334.884 126.954 333.304 128.844 332.371 131.055C331.437 133.266 331.193 135.699 331.669 138.046C332.145 140.394 333.319 142.55 335.043 144.242C336.767 145.935 338.964 147.087 341.356 147.554C343.748 148.021 346.227 147.781 348.479 146.866C350.732 145.95 352.658 144.399 354.012 142.409C355.367 140.419 356.09 138.079 356.09 135.686C356.087 132.477 354.786 129.402 352.475 127.133C350.164 124.864 347.03 123.588 343.761 123.585Z" fill="#E6E6E6"/>
<path d="M274.235 314.858C271.481 314.858 268.788 314.056 266.498 312.554C264.207 311.052 262.422 308.917 261.368 306.419C260.314 303.921 260.038 301.173 260.575 298.521C261.113 295.869 262.439 293.434 264.387 291.522C266.335 289.61 268.816 288.308 271.518 287.781C274.22 287.253 277.02 287.524 279.565 288.559C282.11 289.593 284.285 291.345 285.815 293.593C287.346 295.841 288.163 298.484 288.163 301.188C288.158 304.812 286.69 308.287 284.079 310.849C281.468 313.412 277.928 314.854 274.235 314.858ZM274.235 289.087C271.797 289.087 269.413 289.797 267.386 291.126C265.358 292.456 263.778 294.346 262.845 296.557C261.911 298.768 261.667 301.201 262.143 303.549C262.619 305.896 263.793 308.052 265.517 309.745C267.241 311.437 269.438 312.589 271.83 313.056C274.222 313.523 276.7 313.284 278.953 312.368C281.206 311.452 283.132 309.901 284.486 307.911C285.841 305.921 286.564 303.581 286.564 301.188C286.561 297.98 285.26 294.904 282.949 292.635C280.638 290.367 277.504 289.09 274.235 289.087Z" fill="#E6E6E6"/>
<path d="M111.833 149.547C109.937 149.547 108.084 149.001 106.508 147.98C104.931 146.958 103.703 145.506 102.977 143.807C102.252 142.108 102.062 140.238 102.432 138.434C102.801 136.631 103.714 134.974 105.055 133.674C106.396 132.373 108.104 131.488 109.963 131.129C111.822 130.77 113.75 130.954 115.501 131.658C117.253 132.362 118.75 133.554 119.803 135.083C120.857 136.612 121.419 138.409 121.419 140.248C121.416 142.714 120.405 145.077 118.608 146.82C116.811 148.563 114.374 149.544 111.833 149.547ZM111.833 132.017C110.155 132.017 108.514 132.5 107.119 133.404C105.723 134.309 104.636 135.594 103.993 137.099C103.351 138.603 103.183 140.258 103.51 141.854C103.838 143.451 104.646 144.918 105.833 146.069C107.02 147.22 108.532 148.004 110.178 148.321C111.824 148.639 113.53 148.476 115.08 147.853C116.631 147.23 117.956 146.175 118.889 144.821C119.821 143.468 120.319 141.876 120.319 140.248C120.316 138.066 119.421 135.974 117.831 134.431C116.24 132.888 114.083 132.02 111.833 132.017Z" fill="#E6E6E6"/>
<path d="M188.798 127.855C192.527 127.855 195.549 123.877 195.549 118.97C195.549 114.063 192.527 110.085 188.798 110.085C185.07 110.085 182.048 114.063 182.048 118.97C182.048 123.877 185.07 127.855 188.798 127.855Z" fill="#E6E6E6"/>
<path d="M266.769 266.461C263.683 268.479 260.524 263.675 263.669 261.747C266.756 259.729 269.914 264.532 266.769 266.461Z" fill="#E6E6E6"/>
<path d="M249.004 104.737C253.859 104.737 257.795 100.874 257.795 96.1088C257.795 91.3436 253.859 87.4807 249.004 87.4807C244.149 87.4807 240.214 91.3436 240.214 96.1088C240.214 100.874 244.149 104.737 249.004 104.737Z" fill="#FF6584"/>
<path opacity="0.3" d="M276.365 144.346L297.955 72.8362L274.248 143.49C274.131 143.657 274.05 143.854 274.014 144.064C273.977 144.274 273.985 144.491 274.037 144.697C274.089 144.903 274.183 145.091 274.313 145.247C274.442 145.403 274.602 145.522 274.78 145.594C274.957 145.666 275.148 145.689 275.335 145.661C275.522 145.632 275.7 145.554 275.855 145.432C276.01 145.31 276.137 145.148 276.226 144.959C276.315 144.77 276.362 144.56 276.365 144.346H276.365Z" fill="#F0F0F0"/>
<path d="M229.26 318.081C233.984 318.081 237.813 314.322 237.813 309.686C237.813 305.05 233.984 301.292 229.26 301.292C224.537 301.292 220.707 305.05 220.707 309.686C220.707 314.322 224.537 318.081 229.26 318.081Z" fill="#F2F2F2"/>
<path d="M146.425 312.888C146.425 312.888 125.103 326.515 130.741 335.571C130.935 335.883 105.272 369.15 105.272 369.15L56.8261 366.132L55.1192 382.047L98.2493 394.307C98.2493 394.307 108.801 401.916 116.952 393.533C125.103 385.15 152.253 359.479 152.253 359.479L153.563 411.308L139.934 483.127L160.284 481.86L180.091 409.808L187.402 328.191L146.425 312.888Z" fill="#2F2E41"/>
<path d="M181.384 233.783L198.081 225.411L202.501 241.701L190.903 250.139L181.384 233.783Z" fill="#83CDF3"/>
<path d="M161.612 231.103L152.646 237.772L142.426 259.18L152.253 272.28C152.253 272.28 160.52 286.341 147.288 299.958C134.057 313.576 123.897 328.12 134.487 327.6C145.077 327.081 187.97 348.494 188.252 330.951C188.535 313.408 189.106 299.958 189.106 299.958L200.351 271.963C200.351 271.963 207.051 255.263 202.347 250.264C197.643 245.265 191.345 238.877 191.345 238.877L179.892 227.635H169.55L161.612 231.103Z" fill="#83CDF3"/>
<path d="M178.35 189.969C198.465 201.204 181.951 230.846 161.461 220.291C141.347 209.057 157.861 179.414 178.35 189.969Z" fill="#A0616A"/>
<path d="M189.106 196.199C187.696 197.998 184.752 197.154 178.985 198.438C178.998 196.52 178.772 194.607 178.313 192.742C177.884 195.051 176.943 197.239 175.558 199.152C170.551 199.697 176.689 214.628 174.126 225.605C170.822 202.447 163.874 208.514 167.384 213.107C169.631 216.048 168.133 224.87 161.392 220.459C150.27 225.647 134.428 199.874 151.986 187.787C151.672 181.254 159.078 180.222 163.639 182.231C174.708 174.138 187.354 184.507 189.106 196.199Z" fill="#2F2E41"/>
<path d="M137.495 179.3C133.017 206.325 109.013 174.33 97.7272 200.925C94.1786 210.557 100.267 217.446 104.118 225.441C104.997 232.011 96.2892 235.344 95.377 241.392C95.1232 255.256 117.913 254.408 124.284 245.661C130.83 236.504 123.013 224.218 126.948 214.389C132.478 200.743 154.969 200.642 156.928 184.766C153.134 179.462 142.93 173.387 137.495 179.3Z" fill="#2F2E41"/>
<path d="M155.637 181.941C155.49 182.001 155.344 182.062 155.213 182.13H155.205C155.082 182.191 154.958 182.251 154.835 182.319C154.82 182.327 154.812 182.334 154.796 182.342C154.635 182.191 154.473 182.039 154.303 181.888C154.259 182.134 154.27 182.387 154.334 182.629L154.357 182.72C154.511 182.879 154.673 183.031 154.843 183.19C154.997 183.076 155.144 182.955 155.298 182.841C155.39 182.766 155.483 182.69 155.583 182.614C155.598 182.418 155.622 182.191 155.645 181.941L155.637 181.941ZM160.279 173.525C156.84 172.753 155.729 177.165 155.398 179.292C154.149 171.572 148.952 174.002 150.748 179.269C151.321 180.829 152.222 182.252 153.393 183.447C153.555 183.628 153.732 183.81 153.917 183.992C153.709 185.051 154.758 184.779 156.177 183.803C157.224 183.071 158.193 182.237 159.068 181.313C161.898 178.399 164.103 174.501 160.279 173.525ZM160.387 177.869C159.326 179.212 158.135 180.451 156.832 181.57C156.423 181.933 156.007 182.281 155.583 182.614C155.575 182.682 155.575 182.743 155.568 182.796C155.538 182.869 155.502 182.94 155.46 183.008C155.028 183.772 154.542 183.356 154.357 182.72C154.342 182.698 154.318 182.675 154.303 182.652C153.687 182.027 153.151 181.331 152.707 180.578C149.522 175.16 154.65 171.474 154.396 181.593C154.349 181.685 154.317 181.785 154.303 181.888C154.259 182.134 154.27 182.387 154.334 182.629L154.357 182.72C154.511 182.879 154.673 183.031 154.843 183.19C154.997 183.076 155.144 182.955 155.298 182.841C155.39 182.766 155.483 182.69 155.583 182.614C155.598 182.418 155.622 182.191 155.645 181.941V181.933C155.845 179.905 156.393 176.257 157.403 175.266C159.623 173.593 162.5 175.402 160.387 177.869ZM155.637 181.941C155.49 182.001 155.344 182.062 155.213 182.13H155.205C155.082 182.191 154.958 182.251 154.835 182.319C154.82 182.327 154.812 182.334 154.796 182.342C154.635 182.191 154.473 182.039 154.303 181.888C154.259 182.134 154.27 182.387 154.334 182.629L154.357 182.72C154.511 182.879 154.673 183.031 154.843 183.19C154.997 183.076 155.144 182.955 155.298 182.841C155.39 182.766 155.483 182.69 155.583 182.614C155.598 182.418 155.622 182.191 155.645 181.941L155.637 181.941Z" fill="#2F2E41"/>
<path d="M341.554 330.94L334.125 349.956L299.275 417.427L329.897 495.917L345.701 491.822L332.675 417.427L370.047 372.859L414.428 402.404C414.428 402.404 434.111 417.486 441.599 403.188C449.087 388.89 497.54 358.479 497.54 358.479L485.553 345.929L429.757 371.557L391.247 318.355L341.554 330.94Z" fill="#2F2E41"/>
<path d="M456.47 181.882C456.579 182.951 456.448 184.031 456.086 185.046C455.725 186.06 455.141 186.985 454.375 187.753C453.61 188.522 452.683 189.117 451.658 189.496C450.633 189.875 449.536 190.029 448.444 189.947L420.322 242.442L412.772 231.066L441.517 181.522C441.779 179.731 442.701 178.096 444.109 176.928C445.517 175.76 447.313 175.139 449.156 175.183C450.999 175.227 452.762 175.934 454.11 177.168C455.458 178.403 456.297 180.08 456.47 181.882Z" fill="#FFB6B6"/>
<path d="M242.854 193.937C243.02 194.999 243.422 196.013 244.031 196.906C244.64 197.799 245.441 198.551 246.378 199.107C247.315 199.664 248.365 200.012 249.454 200.127C250.542 200.242 251.644 200.122 252.68 199.774L293.292 243.691L297.702 230.823L257.239 189.916C256.529 188.246 255.219 186.89 253.558 186.104C251.897 185.319 250 185.159 248.227 185.655C246.453 186.15 244.927 187.267 243.937 188.794C242.946 190.32 242.561 192.15 242.854 193.937Z" fill="#FFB6B6"/>
<path d="M379.039 241.243L366.81 228.347L345.832 225.515L320.129 243.176L320.387 262.725L333.094 308.791C333.094 308.791 328.254 341.886 341.773 341.555C355.291 341.223 362.66 334.608 368.166 335.954C373.672 337.301 397.077 343.032 398.56 337.029C400.043 331.026 407.928 335.324 407.582 329.645C407.236 323.966 386.237 283.033 386.237 283.033L391.458 242.095L379.039 241.243Z" fill="#83CDF3"/>
<path d="M367.937 251.004C367.937 251.004 366.821 260.342 377.531 262.654C388.242 264.965 417.914 248.324 422.779 245.782C424.302 244.986 426.369 241.085 428.49 236.101C429.442 233.864 430.405 231.408 431.335 228.917C431.872 227.476 434.448 227.083 434.955 225.653C435.459 224.232 433.895 221.774 434.351 220.434C436.518 214.075 438.053 209.029 438.053 209.029L430.954 195.942C421.026 201.093 415.934 212.44 412.189 225.513L367.937 251.004Z" fill="#83CDF3"/>
<path d="M346.194 239.113C346.194 239.113 349.655 247.88 339.875 252.749C330.095 257.618 297.123 248.794 291.765 247.528C290.087 247.132 287.092 243.863 283.767 239.558C282.275 237.626 280.717 235.485 279.182 233.302C278.293 232.039 275.699 232.29 274.844 231.031C273.994 229.778 274.882 227.014 274.098 225.829C270.379 220.204 267.606 215.697 267.606 215.697L271.142 201.282C282.067 203.831 289.891 213.566 296.85 225.304L346.194 239.113Z" fill="#83CDF3"/>
<path d="M356.74 222.234C367.763 222.234 376.699 213.463 376.699 202.644C376.699 191.824 367.763 183.053 356.74 183.053C345.716 183.053 336.78 191.824 336.78 202.644C336.78 213.463 345.716 222.234 356.74 222.234Z" fill="#FFB6B6"/>
<path d="M379.524 191.427C377.424 188.239 373.484 186.114 369.665 186.711C369.309 184.319 368.292 182.068 366.723 180.204C365.155 178.339 363.095 176.933 360.769 176.138C358.442 175.343 355.938 175.19 353.529 175.696C351.12 176.201 348.899 177.345 347.106 179.004C346.517 178.596 345.83 178.345 345.113 178.275C344.396 178.204 343.672 178.317 343.012 178.601C341.698 179.188 340.554 180.089 339.686 181.222C337.494 183.904 336.085 187.12 335.607 190.527C335.13 193.933 335.603 197.403 336.975 200.567C336.508 198.901 338.209 197.334 339.927 196.961C341.645 196.587 343.448 196.94 345.19 196.697C347.424 196.385 349.431 195.114 351.668 194.827C353.565 194.706 355.467 194.946 357.271 195.534C359.075 196.122 360.975 196.372 362.873 196.272C364.755 196.053 367.18 203.056 367.148 207.988C367.141 208.922 367.338 210.122 368.268 210.321C369.414 210.565 370.079 209.012 371.169 208.589C371.672 208.448 372.211 208.504 372.673 208.745C373.135 208.986 373.483 209.393 373.645 209.881C373.782 210.378 373.797 210.899 373.688 211.402C373.578 211.905 373.348 212.375 373.017 212.773C372.346 213.562 371.55 214.24 370.659 214.78L371.109 215.147C371.535 215.589 372.105 215.872 372.721 215.947C373.336 216.022 373.959 215.885 374.483 215.558C375.513 214.874 376.347 213.942 376.906 212.851C379.012 209.655 380.517 206.115 381.35 202.398C382.054 198.666 381.623 194.615 379.524 191.427Z" fill="#2F2E41"/>
<path d="M418.336 528.663C417.723 530.445 67.6359 530.445 66.9744 528.667C67.5868 526.88 417.673 526.88 418.336 528.663Z" fill="#CCCCCC"/>
</svg>
