<svg width="1217" height="1296" viewBox="0 0 1217 1296" fill="none" xmlns="http://www.w3.org/2000/svg">
<path d="M470.693 1051.13C416.297 1152.89 460.312 1269.07 352.247 1293.8C250.569 1314.32 112.914 1186.17 56.7963 1119.53C-29.4433 1015.36 1.34384 689.865 27.5174 540.142C50.9405 395.46 188.551 197.071 254.428 115.961C353.977 -17.6719 644.37 -23.4598 766.809 36.3864C889.248 96.2322 939.155 187.206 999.043 255.382C1067.18 336.403 1027.44 435.576 999.043 475.035C949.802 540.142 957.787 601.302 1028.32 632.211C1084.75 656.939 1230.61 677.589 1215.97 784.128C1185.36 903.161 914.135 903.161 819.378 903.161C712.687 906.011 545.221 911.711 470.693 1051.13Z" fill="#62C3F5" fill-opacity="0.3"/>
</svg>
