<svg width="204" height="49" viewBox="0 0 204 49" fill="none" xmlns="http://www.w3.org/2000/svg">
<path d="M2.62 48C1.98 48 1.42 47.78 0.94 47.34C0.5 46.86 0.28 46.3 0.28 45.66V3.48C0.28 2.8 0.5 2.24 0.94 1.8C1.38 1.36 1.94 1.14 2.62 1.14H30.76C31.44 1.14 32 1.36 32.44 1.8C32.88 2.2 33.1 2.74 33.1 3.42C33.1 4.02 32.88 4.54 32.44 4.98C32 5.42 31.44 5.64 30.76 5.64H4.96V22.2H23.74C24.42 22.2 24.98 22.42 25.42 22.86C25.86 23.3 26.08 23.84 26.08 24.48C26.08 25.12 25.86 25.66 25.42 26.1C24.98 26.54 24.42 26.76 23.74 26.76H4.96V45.66C4.96 46.3 4.74 46.86 4.3 47.34C3.86 47.78 3.3 48 2.62 48ZM43.84 48C43.2 48 42.64 47.78 42.16 47.34C41.72 46.9 41.5 46.34 41.5 45.66V3.48C41.5 2.84 41.72 2.3 42.16 1.86C42.64 1.38 43.2 1.14 43.84 1.14C44.48 1.14 45.02 1.38 45.46 1.86C45.94 2.3 46.18 2.84 46.18 3.48V43.56H69.64C70.28 43.56 70.82 43.78 71.26 44.22C71.74 44.62 71.98 45.14 71.98 45.78C71.98 46.42 71.74 46.96 71.26 47.4C70.82 47.8 70.28 48 69.64 48H43.84ZM96.91 48.6C93.43 48.6 90.23 48 87.31 46.8C84.39 45.6 81.85 43.92 79.69 41.76C77.57 39.6 75.91 37.06 74.71 34.14C73.55 31.22 72.97 28.02 72.97 24.54C72.97 21.1 73.55 17.92 74.71 15C75.91 12.08 77.57 9.54 79.69 7.38C81.85 5.22 84.39 3.54 87.31 2.34C90.23 1.14 93.43 0.539999 96.91 0.539999C100.35 0.539999 103.53 1.14 106.45 2.34C109.37 3.54 111.91 5.22 114.07 7.38C116.23 9.54 117.89 12.08 119.05 15C120.25 17.92 120.85 21.1 120.85 24.54C120.85 28.02 120.25 31.22 119.05 34.14C117.89 37.06 116.23 39.6 114.07 41.76C111.91 43.92 109.37 45.6 106.45 46.8C103.53 48 100.35 48.6 96.91 48.6ZM96.91 44.16C99.67 44.16 102.23 43.68 104.59 42.72C106.95 41.72 108.99 40.34 110.71 38.58C112.47 36.78 113.83 34.7 114.79 32.34C115.75 29.94 116.23 27.34 116.23 24.54C116.23 21.78 115.75 19.22 114.79 16.86C113.83 14.46 112.47 12.38 110.71 10.62C108.99 8.82 106.95 7.44 104.59 6.48C102.23 5.48 99.67 4.98 96.91 4.98C94.11 4.98 91.53 5.48 89.17 6.48C86.81 7.44 84.75 8.82 82.99 10.62C81.27 12.38 79.93 14.46 78.97 16.86C78.01 19.22 77.53 21.78 77.53 24.54C77.53 27.34 78.01 29.94 78.97 32.34C79.93 34.7 81.27 36.78 82.99 38.58C84.75 40.34 86.81 41.72 89.17 42.72C91.53 43.68 94.11 44.16 96.91 44.16ZM132.844 48C132.164 48 131.604 47.78 131.164 47.34C130.724 46.9 130.504 46.34 130.504 45.66V3.48C130.504 2.8 130.724 2.24 131.164 1.8C131.604 1.36 132.164 1.14 132.844 1.14H144.064C146.984 1.14 149.584 1.76 151.864 3C154.144 4.2 155.924 5.9 157.204 8.1C158.524 10.26 159.184 12.76 159.184 15.6C159.184 18.32 158.524 20.74 157.204 22.86C155.924 24.98 154.144 26.64 151.864 27.84C149.584 29.04 146.984 29.64 144.064 29.64H135.184V45.66C135.184 46.34 134.964 46.9 134.524 47.34C134.084 47.78 133.524 48 132.844 48ZM157.924 48C157.404 48 156.984 47.9 156.664 47.7C156.384 47.5 156.124 47.2 155.884 46.8L144.364 28.44L149.044 27.24L159.784 44.4C160.384 45.36 160.484 46.2 160.084 46.92C159.724 47.64 159.004 48 157.924 48ZM135.184 25.14H144.064C146.104 25.14 147.904 24.74 149.464 23.94C151.064 23.1 152.324 21.96 153.244 20.52C154.164 19.08 154.624 17.44 154.624 15.6C154.624 13.64 154.164 11.92 153.244 10.44C152.324 8.92 151.064 7.74 149.464 6.9C147.904 6.06 146.104 5.64 144.064 5.64H135.184V25.14ZM165.014 48C164.094 48 163.434 47.62 163.034 46.86C162.634 46.1 162.594 45.36 162.914 44.64L180.554 2.76C180.994 1.68 181.754 1.14 182.834 1.14C183.874 1.14 184.614 1.68 185.054 2.76L202.754 44.7C203.114 45.46 203.054 46.2 202.574 46.92C202.134 47.64 201.494 48 200.654 48C200.174 48 199.734 47.88 199.334 47.64C198.974 47.4 198.674 47.04 198.434 46.56L181.934 6.54H183.794L167.174 46.56C166.974 47.04 166.674 47.4 166.274 47.64C165.914 47.88 165.494 48 165.014 48ZM168.974 36.84L170.774 32.82H195.134L196.934 36.84H168.974Z" fill="#83CDF3"/>
</svg>
