<svg width="79" height="64" viewBox="0 0 79 64" fill="none" xmlns="http://www.w3.org/2000/svg">
<path d="M0.816441 23.236C2.35454 15.5363 14.4037 -0.237422 30.7715 0.0027109C39.2009 0.126382 58.9877 2.13437 73.9806 16.7825C80.5861 23.2361 84.0959 44.8481 62.0321 58.0554C50.4129 64.0133 13.9596 70.3918 4.00816 50.7013C1.93491 46.5991 -1.606 35.3627 0.816441 23.236Z" fill="#D70063"/>
<path d="M5.31759 23.236C6.85569 15.5363 21.7672 6.86194 38.1351 7.10207C46.5645 7.22574 49.3306 12.0398 64.3236 26.6879C70.929 33.1415 72.0983 40.4206 60.559 48.2999C48.9398 54.2577 24.926 67.9903 14.9746 48.2999C12.9013 44.1976 2.89515 35.3627 5.31759 23.236Z" fill="#83CDF3"/>
<path d="M27.496 31.4906C27.8233 26.6879 29.0509 26.3878 44.0275 22.8608C46.9737 22.167 53.93 22.8608 60.8863 26.6879C69.1632 31.2416 71.0344 42.4467 57.3672 47.6996C41.1427 53.9354 33.3065 45.0965 29.6238 41.7713C27.496 39.8501 26.9446 39.5793 27.496 31.4906Z" fill="#D70063"/>
<path d="M28.478 37.2359C26.9701 32.6268 29.8693 31.6078 35.8436 31.6078C38.8854 31.6078 43.782 32.6884 45.5006 33.6339C49.0197 35.57 48.4846 42.0385 46.319 43.2392C39.2808 47.1414 36.5801 43.3143 33.3884 42.1886C31.5879 41.5537 29.7056 40.988 28.478 37.2359Z" fill="#83CDF3"/>
</svg>
