<svg width="200" height="19" viewBox="0 0 200 19" fill="none" xmlns="http://www.w3.org/2000/svg">
<path d="M1.1275 18C0.8725 18 0.6625 17.9175 0.4975 17.7525C0.3325 17.5875 0.25 17.3775 0.25 17.1225V1.305C0.25 1.05 0.3325 0.839999 0.4975 0.674999C0.6625 0.509999 0.8725 0.4275 1.1275 0.4275H5.6275C6.7375 0.4275 7.72 0.675 8.575 1.17C9.43 1.65 10.0975 2.3175 10.5775 3.1725C11.0575 4.0275 11.2975 5.0175 11.2975 6.1425C11.2975 7.2375 11.0575 8.2125 10.5775 9.0675C10.0975 9.9075 9.43 10.575 8.575 11.07C7.72 11.55 6.7375 11.79 5.6275 11.79H2.005V17.1225C2.005 17.3775 1.9225 17.5875 1.7575 17.7525C1.5925 17.9175 1.3825 18 1.1275 18ZM2.005 10.1025H5.6275C6.3925 10.1025 7.075 9.9375 7.675 9.6075C8.275 9.2625 8.74 8.79 9.07 8.19C9.415 7.59 9.5875 6.9075 9.5875 6.1425C9.5875 5.3475 9.415 4.65 9.07 4.05C8.74 3.45 8.275 2.9775 7.675 2.6325C7.075 2.2875 6.3925 2.115 5.6275 2.115H2.005V10.1025ZM14.9044 18C14.6494 18 14.4394 17.9175 14.2744 17.7525C14.1094 17.5875 14.0269 17.3775 14.0269 17.1225V1.305C14.0269 1.05 14.1094 0.839999 14.2744 0.674999C14.4394 0.509999 14.6494 0.4275 14.9044 0.4275C15.1594 0.4275 15.3694 0.509999 15.5344 0.674999C15.6994 0.839999 15.7819 1.05 15.7819 1.305V8.325H26.7619V1.305C26.7619 1.05 26.8444 0.839999 27.0094 0.674999C27.1744 0.509999 27.3844 0.4275 27.6394 0.4275C27.8944 0.4275 28.1044 0.509999 28.2694 0.674999C28.4344 0.839999 28.5169 1.05 28.5169 1.305V17.1225C28.5169 17.3775 28.4344 17.5875 28.2694 17.7525C28.1044 17.9175 27.8944 18 27.6394 18C27.3844 18 27.1744 17.9175 27.0094 17.7525C26.8444 17.5875 26.7619 17.3775 26.7619 17.1225V9.9H15.7819V17.1225C15.7819 17.3775 15.6994 17.5875 15.5344 17.7525C15.3694 17.9175 15.1594 18 14.9044 18ZM38.0512 18C37.8112 18 37.6012 17.9175 37.4212 17.7525C37.2562 17.5725 37.1737 17.3625 37.1737 17.1225V11.4975L31.0537 1.8C30.9037 1.575 30.8437 1.3575 30.8737 1.1475C30.9187 0.9375 31.0162 0.765 31.1662 0.63C31.3162 0.495 31.5037 0.4275 31.7287 0.4275C31.9087 0.4275 32.0512 0.465 32.1562 0.539999C32.2762 0.614999 32.3812 0.719999 32.4712 0.854999L38.5462 10.6425H37.6012L43.6537 0.899999C43.7587 0.734999 43.8712 0.614999 43.9912 0.539999C44.1262 0.465 44.2837 0.4275 44.4637 0.4275C44.6737 0.4275 44.8462 0.5025 44.9812 0.652499C45.1312 0.787499 45.2137 0.959999 45.2287 1.17C45.2587 1.38 45.2062 1.59 45.0712 1.8L38.9287 11.4975V17.1225C38.9287 17.3625 38.8387 17.5725 38.6587 17.7525C38.4937 17.9175 38.2912 18 38.0512 18ZM53.0011 18.225C52.0411 18.225 51.1486 18.09 50.3236 17.82C49.5136 17.535 48.8086 17.1375 48.2086 16.6275C47.6086 16.1175 47.1511 15.525 46.8361 14.85C46.7161 14.61 46.7086 14.3925 46.8136 14.1975C46.9336 13.9875 47.1286 13.845 47.3986 13.77C47.6086 13.71 47.8111 13.7325 48.0061 13.8375C48.2161 13.9425 48.3736 14.1 48.4786 14.31C48.7036 14.745 49.0336 15.135 49.4686 15.48C49.9036 15.825 50.4211 16.095 51.0211 16.29C51.6211 16.47 52.2811 16.56 53.0011 16.56C53.7961 16.56 54.5011 16.4325 55.1161 16.1775C55.7311 15.9075 56.2111 15.525 56.5561 15.03C56.9161 14.52 57.0961 13.905 57.0961 13.185C57.0961 12.27 56.7586 11.4825 56.0836 10.8225C55.4086 10.1625 54.3511 9.7425 52.9111 9.5625C51.1561 9.3525 49.7836 8.8125 48.7936 7.9425C47.8036 7.0575 47.3086 5.9775 47.3086 4.7025C47.3086 3.7875 47.5486 2.9925 48.0286 2.3175C48.5236 1.6425 49.1986 1.125 50.0536 0.764999C50.9086 0.39 51.8911 0.2025 53.0011 0.2025C53.8261 0.2025 54.5761 0.337499 55.2511 0.607499C55.9261 0.862499 56.5111 1.2075 57.0061 1.6425C57.5161 2.0625 57.9286 2.5275 58.2436 3.0375C58.3936 3.2775 58.4386 3.51 58.3786 3.735C58.3336 3.96 58.2061 4.1325 57.9961 4.2525C57.7711 4.3575 57.5386 4.3725 57.2986 4.2975C57.0736 4.2225 56.9011 4.08 56.7811 3.87C56.5561 3.525 56.2711 3.2025 55.9261 2.9025C55.5961 2.5875 55.1911 2.34 54.7111 2.16C54.2311 1.98 53.6536 1.8825 52.9786 1.8675C51.7936 1.8675 50.8411 2.1225 50.1211 2.6325C49.4011 3.1275 49.0411 3.855 49.0411 4.815C49.0411 5.325 49.1761 5.7975 49.4461 6.2325C49.7161 6.6525 50.1586 7.02 50.7736 7.335C51.4036 7.635 52.2436 7.86 53.2936 8.01C55.1686 8.28 56.5561 8.8575 57.4561 9.7425C58.3711 10.6125 58.8286 11.7525 58.8286 13.1625C58.8286 13.9725 58.6786 14.6925 58.3786 15.3225C58.0936 15.9525 57.6811 16.485 57.1411 16.92C56.6161 17.34 55.9936 17.6625 55.2736 17.8875C54.5686 18.1125 53.8111 18.225 53.0011 18.225ZM63.376 18C63.121 18 62.911 17.9175 62.746 17.7525C62.581 17.5875 62.4985 17.3775 62.4985 17.1225V1.305C62.4985 1.05 62.581 0.839999 62.746 0.674999C62.911 0.509999 63.121 0.4275 63.376 0.4275C63.631 0.4275 63.841 0.509999 64.006 0.674999C64.171 0.839999 64.2535 1.05 64.2535 1.305V17.1225C64.2535 17.3775 64.171 17.5875 64.006 17.7525C63.841 17.9175 63.631 18 63.376 18ZM76.8832 18.225C75.5782 18.225 74.3782 18 73.2832 17.55C72.1882 17.1 71.2357 16.47 70.4257 15.66C69.6307 14.85 69.0082 13.8975 68.5582 12.8025C68.1232 11.7075 67.9057 10.5075 67.9057 9.2025C67.9057 7.9125 68.1232 6.72 68.5582 5.625C69.0082 4.53 69.6307 3.5775 70.4257 2.7675C71.2357 1.9575 72.1882 1.3275 73.2832 0.877499C74.3782 0.4275 75.5782 0.2025 76.8832 0.2025C78.1732 0.2025 79.3657 0.4275 80.4607 0.877499C81.5557 1.3275 82.5082 1.9575 83.3182 2.7675C84.1282 3.5775 84.7507 4.53 85.1857 5.625C85.6357 6.72 85.8607 7.9125 85.8607 9.2025C85.8607 10.5075 85.6357 11.7075 85.1857 12.8025C84.7507 13.8975 84.1282 14.85 83.3182 15.66C82.5082 16.47 81.5557 17.1 80.4607 17.55C79.3657 18 78.1732 18.225 76.8832 18.225ZM76.8832 16.56C77.9182 16.56 78.8782 16.38 79.7632 16.02C80.6482 15.645 81.4132 15.1275 82.0582 14.4675C82.7182 13.7925 83.2282 13.0125 83.5882 12.1275C83.9482 11.2275 84.1282 10.2525 84.1282 9.2025C84.1282 8.1675 83.9482 7.2075 83.5882 6.3225C83.2282 5.4225 82.7182 4.6425 82.0582 3.9825C81.4132 3.3075 80.6482 2.79 79.7632 2.43C78.8782 2.055 77.9182 1.8675 76.8832 1.8675C75.8332 1.8675 74.8657 2.055 73.9807 2.43C73.0957 2.79 72.3232 3.3075 71.6632 3.9825C71.0182 4.6425 70.5157 5.4225 70.1557 6.3225C69.7957 7.2075 69.6157 8.1675 69.6157 9.2025C69.6157 10.2525 69.7957 11.2275 70.1557 12.1275C70.5157 13.0125 71.0182 13.7925 71.6632 14.4675C72.3232 15.1275 73.0957 15.645 73.9807 16.02C74.8657 16.38 75.8332 16.56 76.8832 16.56ZM93.2481 18C93.0081 18 92.7981 17.9175 92.6181 17.7525C92.4531 17.5725 92.3706 17.3625 92.3706 17.1225V0.4275H94.1256V17.1225C94.1256 17.3625 94.0431 17.5725 93.8781 17.7525C93.7131 17.9175 93.5031 18 93.2481 18ZM87.0381 2.025C86.7981 2.025 86.6031 1.95 86.4531 1.8C86.3031 1.65 86.2281 1.4625 86.2281 1.2375C86.2281 0.997499 86.3031 0.802499 86.4531 0.652499C86.6031 0.5025 86.7981 0.4275 87.0381 0.4275H99.4806C99.7206 0.4275 99.9156 0.5025 100.066 0.652499C100.216 0.802499 100.291 0.997499 100.291 1.2375C100.291 1.4625 100.216 1.65 100.066 1.8C99.9156 1.95 99.7206 2.025 99.4806 2.025H87.0381ZM103.762 18C103.507 18 103.297 17.9175 103.132 17.7525C102.967 17.5875 102.884 17.3775 102.884 17.1225V1.305C102.884 1.05 102.967 0.839999 103.132 0.674999C103.297 0.509999 103.507 0.4275 103.762 0.4275C104.017 0.4275 104.227 0.509999 104.392 0.674999C104.557 0.839999 104.639 1.05 104.639 1.305V8.325H115.619V1.305C115.619 1.05 115.702 0.839999 115.867 0.674999C116.032 0.509999 116.242 0.4275 116.497 0.4275C116.752 0.4275 116.962 0.509999 117.127 0.674999C117.292 0.839999 117.374 1.05 117.374 1.305V17.1225C117.374 17.3775 117.292 17.5875 117.127 17.7525C116.962 17.9175 116.752 18 116.497 18C116.242 18 116.032 17.9175 115.867 17.7525C115.702 17.5875 115.619 17.3775 115.619 17.1225V9.9H104.639V17.1225C104.639 17.3775 104.557 17.5875 104.392 17.7525C104.227 17.9175 104.017 18 103.762 18ZM122.746 18C122.491 18 122.281 17.9175 122.116 17.7525C121.951 17.5875 121.869 17.3775 121.869 17.1225V1.305C121.869 1.05 121.951 0.839999 122.116 0.674999C122.281 0.509999 122.491 0.4275 122.746 0.4275H133.299C133.539 0.4275 133.741 0.509999 133.906 0.674999C134.086 0.824999 134.176 1.0275 134.176 1.2825C134.176 1.5075 134.086 1.7025 133.906 1.8675C133.741 2.0325 133.539 2.115 133.299 2.115H123.624V8.325H130.666C130.921 8.325 131.131 8.4075 131.296 8.5725C131.461 8.7375 131.544 8.94 131.544 9.18C131.544 9.42 131.461 9.6225 131.296 9.7875C131.131 9.9525 130.921 10.035 130.666 10.035H123.624V16.3125H133.299C133.539 16.3125 133.741 16.395 133.906 16.56C134.086 16.725 134.176 16.92 134.176 17.145C134.176 17.4 134.086 17.61 133.906 17.775C133.741 17.925 133.539 18 133.299 18H122.746ZM138.325 18C138.07 18 137.86 17.9175 137.695 17.7525C137.53 17.5875 137.447 17.3775 137.447 17.1225V1.305C137.447 1.05 137.53 0.839999 137.695 0.674999C137.86 0.509999 138.07 0.4275 138.325 0.4275H142.532C143.627 0.4275 144.602 0.659999 145.457 1.125C146.312 1.575 146.98 2.2125 147.46 3.0375C147.955 3.8475 148.202 4.785 148.202 5.85C148.202 6.87 147.955 7.7775 147.46 8.5725C146.98 9.3675 146.312 9.99 145.457 10.44C144.602 10.89 143.627 11.115 142.532 11.115H139.202V17.1225C139.202 17.3775 139.12 17.5875 138.955 17.7525C138.79 17.9175 138.58 18 138.325 18ZM147.73 18C147.535 18 147.377 17.9625 147.257 17.8875C147.152 17.8125 147.055 17.7 146.965 17.55L142.645 10.665L144.4 10.215L148.427 16.65C148.652 17.01 148.69 17.325 148.54 17.595C148.405 17.865 148.135 18 147.73 18ZM139.202 9.4275H142.532C143.297 9.4275 143.972 9.2775 144.557 8.9775C145.157 8.6625 145.63 8.235 145.975 7.695C146.32 7.155 146.492 6.54 146.492 5.85C146.492 5.115 146.32 4.47 145.975 3.915C145.63 3.345 145.157 2.9025 144.557 2.5875C143.972 2.2725 143.297 2.115 142.532 2.115H139.202V9.4275ZM150.388 18C150.043 18 149.796 17.8575 149.646 17.5725C149.496 17.2875 149.481 17.01 149.601 16.74L156.216 1.035C156.381 0.63 156.666 0.4275 157.071 0.4275C157.461 0.4275 157.738 0.63 157.903 1.035L164.541 16.7625C164.676 17.0475 164.653 17.325 164.473 17.595C164.308 17.865 164.068 18 163.753 18C163.573 18 163.408 17.955 163.258 17.865C163.123 17.775 163.011 17.64 162.921 17.46L156.733 2.4525H157.431L151.198 17.46C151.123 17.64 151.011 17.775 150.861 17.865C150.726 17.955 150.568 18 150.388 18ZM151.873 13.815L152.548 12.3075H161.683L162.358 13.815H151.873ZM168.054 18C167.799 18 167.589 17.9175 167.424 17.7525C167.259 17.5875 167.176 17.3775 167.176 17.1225V1.305C167.176 1.05 167.259 0.839999 167.424 0.674999C167.589 0.509999 167.799 0.4275 168.054 0.4275H172.554C173.664 0.4275 174.646 0.675 175.501 1.17C176.356 1.65 177.024 2.3175 177.504 3.1725C177.984 4.0275 178.224 5.0175 178.224 6.1425C178.224 7.2375 177.984 8.2125 177.504 9.0675C177.024 9.9075 176.356 10.575 175.501 11.07C174.646 11.55 173.664 11.79 172.554 11.79H168.931V17.1225C168.931 17.3775 168.849 17.5875 168.684 17.7525C168.519 17.9175 168.309 18 168.054 18ZM168.931 10.1025H172.554C173.319 10.1025 174.001 9.9375 174.601 9.6075C175.201 9.2625 175.666 8.79 175.996 8.19C176.341 7.59 176.514 6.9075 176.514 6.1425C176.514 5.3475 176.341 4.65 175.996 4.05C175.666 3.45 175.201 2.9775 174.601 2.6325C174.001 2.2875 173.319 2.115 172.554 2.115H168.931V10.1025ZM181.831 18C181.576 18 181.366 17.9175 181.201 17.7525C181.036 17.5875 180.953 17.3775 180.953 17.1225V1.305C180.953 1.05 181.036 0.839999 181.201 0.674999C181.366 0.509999 181.576 0.4275 181.831 0.4275C182.086 0.4275 182.296 0.509999 182.461 0.674999C182.626 0.839999 182.708 1.05 182.708 1.305V17.1225C182.708 17.3775 182.626 17.5875 182.461 17.7525C182.296 17.9175 182.086 18 181.831 18ZM188.093 18C187.838 18 187.628 17.9175 187.463 17.7525C187.298 17.5875 187.215 17.3775 187.215 17.1225V1.305C187.215 1.05 187.298 0.839999 187.463 0.674999C187.628 0.509999 187.838 0.4275 188.093 0.4275H198.645C198.885 0.4275 199.088 0.509999 199.253 0.674999C199.433 0.824999 199.523 1.0275 199.523 1.2825C199.523 1.5075 199.433 1.7025 199.253 1.8675C199.088 2.0325 198.885 2.115 198.645 2.115H188.97V8.325H196.013C196.268 8.325 196.478 8.4075 196.643 8.5725C196.808 8.7375 196.89 8.94 196.89 9.18C196.89 9.42 196.808 9.6225 196.643 9.7875C196.478 9.9525 196.268 10.035 196.013 10.035H188.97V16.3125H198.645C198.885 16.3125 199.088 16.395 199.253 16.56C199.433 16.725 199.523 16.92 199.523 17.145C199.523 17.4 199.433 17.61 199.253 17.775C199.088 17.925 198.885 18 198.645 18H188.093Z" fill="black"/>
</svg>
